<?xml version="1.0" encoding="utf-8"?>
<!-- Generator: Adobe Illustrator 26.0.2, SVG Export Plug-In . SVG Version: 6.00 Build 0)  -->
<svg version="1.1" id="Layer_1" xmlns="http://www.w3.org/2000/svg" xmlns:xlink="http://www.w3.org/1999/xlink" x="0px" y="0px"
	 viewBox="0 0 559.9 132" style="enable-background:new 0 0 559.9 132;" xml:space="preserve">
<style type="text/css">
	.st0{fill:#5771FF;}
</style>
<path class="st0" d="M141.8,102.8h-19.2V16.6h19.2V102.8z M196.7,102.8h-22.2l-25-36.7h21.1L196.7,102.8z M156.2,75.4h-19.5V60.3
	h21.1c2.8,0,5.3-0.6,7.3-1.7c2.1-1.1,3.7-2.7,4.8-4.8c1.1-2.1,1.7-4.5,1.7-7.2c0-2.7-0.6-5.1-1.7-7.2c-1.1-2.1-2.7-3.7-4.8-4.8
	c-2.1-1.1-4.5-1.7-7.3-1.7h-21.1V16.6h19.5c7.1,0,13.3,1.1,18.5,3.2c5.2,2.1,9.2,5.3,12.1,9.5c2.8,4.2,4.2,9.5,4.2,15.9v1.9
	c0,6.3-1.4,11.6-4.3,15.7s-6.9,7.3-12.1,9.4C169.5,74.3,163.3,75.4,156.2,75.4 M228.8,102.8H210V38.6h18.7V102.8z M228.8,52.4h-27.3
	V38.6h27.3V52.4z M217.3,32.3c-3.5,0-6.1-0.9-7.8-2.8c-1.7-1.8-2.5-4.2-2.5-7c0-2.9,0.8-5.2,2.5-7.1c1.7-1.8,4.3-2.7,7.8-2.8
	c3.5,0,6.1,0.9,7.8,2.8c1.7,1.8,2.5,4.2,2.5,7.1c0,2.8-0.8,5.1-2.5,7C223.4,31.4,220.8,32.3,217.3,32.3 M263.8,102.8h-20.6V81.8
	h20.6V102.8z M296.9,102.8h-17.4V38.1c0-7.4,2.1-12.9,6.3-16.5c4.2-3.6,10.4-5.4,18.6-5.4h8.2v14h-9c-2.1,0-3.7,0.6-4.9,1.8
	c-1.2,1.2-1.8,2.8-1.8,4.9V102.8z M313.5,53.6h-41.6V39.9h41.6V53.6z M344.5,102.8h-18.7V38.6h18.7V102.8z M344.5,52.4h-27.3V38.6
	h27.3V52.4z M333,32.3c-3.5,0-6.1-0.9-7.8-2.8s-2.5-4.2-2.5-7c0-2.9,0.8-5.2,2.5-7.1s4.3-2.7,7.8-2.8c3.5,0,6.1,0.9,7.8,2.8
	c1.7,1.8,2.5,4.2,2.5,7.1c0,2.8-0.8,5.1-2.5,7C339.1,31.4,336.5,32.3,333,32.3 M384.3,104.7h-0.8c-7.4,0-13.1-2.4-17.1-7.2
	c-4-4.8-6-12-6-21.7V38.6h18.7v38.1c0,3.4,1,6.2,2.9,8.2c2,2,4.6,3,7.8,3c3.4,0,6.1-1.1,8.2-3.2c2.1-2.1,3.2-5,3.2-8.5V38.6h18.7
	v64.1h-14.9v-27h1.3c0,6.5-0.8,11.9-2.5,16.2c-1.7,4.3-4.2,7.6-7.4,9.7C393.1,103.7,389.1,104.7,384.3,104.7 M475.4,103.6h-9
	c-6.5,0-11.7-0.8-15.7-2.4c-4-1.6-6.9-4.3-8.7-8.1c-1.8-3.8-2.8-8.9-2.8-15.4V21.3h17.4v57.1c0,3,0.8,5.4,2.4,7
	c1.6,1.6,3.9,2.4,6.8,2.4h9.5V103.6z M475.4,52.3h-45.9V38.6h45.9L475.4,52.3z M519.3,105c-5.6,0-10.6-0.9-15-2.6
	c-4.4-1.8-8.1-4.2-11.1-7.2c-3-3-5.3-6.5-6.8-10.5c-1.6-3.9-2.3-8.1-2.3-12.5v-2.7c0-4.4,0.8-8.7,2.4-12.7c1.6-4,3.9-7.5,7-10.6
	c3.1-3,6.8-5.4,11.2-7.2c4.4-1.8,9.2-2.6,14.6-2.6c5.5,0,10.5,0.9,14.8,2.6c4.3,1.8,8,4.2,11.1,7.2c3,3,5.4,6.6,7,10.6
	c1.6,4,2.5,8.3,2.5,12.7v2.7c0,4.4-0.8,8.5-2.3,12.5s-3.8,7.4-6.8,10.5c-3,3-6.7,5.4-11,7.2C530,104.1,525,105,519.3,105
	 M519.3,89.2c3.7,0,6.7-0.8,9.1-2.3c2.4-1.6,4.3-3.7,5.6-6.6s1.9-5.9,1.9-9.4c0-3.7-0.7-6.9-2-9.7c-1.3-2.8-3.2-5-5.7-6.6
	c-2.5-1.6-5.4-2.5-9-2.5c-3.4,0-6.4,0.8-8.9,2.5c-2.5,1.6-4.4,3.8-5.7,6.6c-1.3,2.8-1.9,6-1.9,9.7c0,3.4,0.6,6.6,1.9,9.4
	c1.2,2.8,3.1,5,5.6,6.6C512.8,88.4,515.8,89.2,519.3,89.2"/>
<path class="st0" d="M31.5,70l3.7,2.3c0.6,0,0.9-0.3,0.9-0.8c0-0.3-0.1-0.8-0.4-1.4l-8.2-15.4L9.3,55.1c-0.8,0-1.2,0.5-1.2,1.3
	c0,0.2,0.3,0.4,0.8,0.8l3.8,2.3l-4,6.2C7.6,67.4,7,68.9,7,70c0,1,0.4,2.2,1.1,3.5l12.4,21.6c-0.3-1.3-0.4-2.6-0.4-3.9
	c0-2.2,0.7-4.3,2-6.4L31.5,70z"/>
<path class="st0" d="M36.3,57.4l10.2-15.8c-3.8-8.7-7.9-13-12.2-13c-2.6,0-4.3,0.7-5.2,2.2l-9.6,15.4L36.3,57.4z M28,100.2h19.7
	V79.7h-19c-2.3,3.3-3.8,5.6-4.4,6.8c-0.9,1.8-1.4,3.8-1.4,5.8C22.9,97.5,24.6,100.2,28,100.2"/>
<path class="st0" d="M68.5,53.6l8.8-14.7c0.3-0.5,0.4-1,0.4-1.6c0-0.7-0.2-1-0.7-1c0.1,0-0.2,0.1-0.9,0.3l-4,1.8l-3.7-7.3
	c-1.6-3.3-4.9-4.9-9.8-4.9H35.9c2.8,0.9,4.7,1.7,5.7,2.5c2.3,1.9,4.7,5.3,7.2,10.4l4.5,9.5l-3.4,1.6c-0.3,0.1-0.5,0.4-0.5,0.9
	c0,0.6,0.4,0.9,1.1,0.9L68.5,53.6z M77.3,97.1L90,74c-1.9,2.1-3.9,3.6-6.2,4.3c-1.8,0.6-4.3,0.9-7.6,0.9H62.1v-2.9
	c0-1.1-0.3-1.7-0.8-1.7c-0.4,0-0.7,0.1-0.9,0.4l-9,15.6l9.3,14.3c0.7,1.1,1.3,1.5,1.8,1.3c0.5-0.1,0.8-0.4,0.8-0.8v-4.9h7.9
	C74,100.4,76.1,99.3,77.3,97.1"/>
<path class="st0" d="M71.7,76.2h8.5c2,0,4.1-0.9,6.3-2.7c2.3-1.9,3.5-3.8,3.5-5.9c0-1-0.3-1.9-0.9-2.8L79,49.4L61.6,59.5L71.7,76.2z
	"/>
</svg>
