<?xml version="1.0" encoding="utf-8"?>
<!-- Generator: Adobe Illustrator 26.0.2, SVG Export Plug-In . SVG Version: 6.00 Build 0)  -->
<svg version="1.1" id="Layer_1" xmlns="http://www.w3.org/2000/svg" xmlns:xlink="http://www.w3.org/1999/xlink" x="0px" y="0px"
	 viewBox="0 0 201.1 132" style="enable-background:new 0 0 201.1 132;" xml:space="preserve">
<style type="text/css">
	.st0{fill:#5771FF;}
</style>
<path class="st0" d="M50.6,112.7H31.4V26.6h19.2V112.7z M105.5,112.7H83.2L58.2,76h21.1L105.5,112.7z M65,85.4H45.4V70.3h21.1
	c2.8,0,5.3-0.6,7.3-1.7c2.1-1.1,3.7-2.7,4.8-4.8c1.1-2.1,1.7-4.5,1.7-7.2c0-2.7-0.6-5.1-1.7-7.2c-1.1-2.1-2.7-3.7-4.8-4.8
	c-2.1-1.1-4.5-1.7-7.3-1.7H45.4V26.6H65c7.1,0,13.3,1.1,18.5,3.2c5.2,2.1,9.2,5.3,12.1,9.5c2.8,4.2,4.2,9.5,4.2,15.9v1.9
	c0,6.3-1.4,11.6-4.3,15.7c-2.8,4.2-6.9,7.3-12.1,9.4C78.2,84.3,72.1,85.4,65,85.4 M137.5,112.7h-18.7V48.6h18.7V112.7z M137.5,62.4
	h-27.3V48.6h27.3V62.4z M126.1,42.3c-3.5,0-6.1-0.9-7.8-2.8c-1.7-1.8-2.5-4.2-2.5-7c0-2.9,0.8-5.2,2.5-7.1c1.7-1.8,4.3-2.7,7.8-2.8
	c3.5,0,6.1,0.9,7.8,2.8c1.7,1.8,2.5,4.2,2.5,7.1c0,2.8-0.8,5.1-2.5,7C132.2,41.4,129.6,42.3,126.1,42.3 M172.5,112.7h-20.6V91.8
	h20.6V112.7z"/>
</svg>
